<svg xmlns="http://www.w3.org/2000/svg" viewBox="0 0 36 24" width="36" height="24"><rect width="36" height="24" fill="#fff"/><rect x="0" y="0.0" width="36" height="1.8461538461538463" fill="#B22234"/><rect x="0" y="1.8461538461538463" width="36" height="1.8461538461538463" fill="#fff"/><rect x="0" y="3.6923076923076925" width="36" height="1.8461538461538463" fill="#B22234"/><rect x="0" y="5.538461538461538" width="36" height="1.8461538461538463" fill="#fff"/><rect x="0" y="7.384615384615385" width="36" height="1.8461538461538463" fill="#B22234"/><rect x="0" y="9.23076923076923" width="36" height="1.8461538461538463" fill="#fff"/><rect x="0" y="11.076923076923077" width="36" height="1.8461538461538463" fill="#B22234"/><rect x="0" y="12.923076923076923" width="36" height="1.8461538461538463" fill="#fff"/><rect x="0" y="14.76923076923077" width="36" height="1.8461538461538463" fill="#B22234"/><rect x="0" y="16.615384615384617" width="36" height="1.8461538461538463" fill="#fff"/><rect x="0" y="18.46153846153846" width="36" height="1.8461538461538463" fill="#B22234"/><rect x="0" y="20.307692307692307" width="36" height="1.8461538461538463" fill="#fff"/><rect x="0" y="22.153846153846153" width="36" height="1.8461538461538463" fill="#B22234"/><rect x="0" y="0" width="16" height="12" fill="#002868"/><circle cx="8" cy="6" r="2" fill="#fff"/><rect x=".5" y=".5" width="35" height="23" fill="none" stroke="rgba(0,0,0,.18)"/></svg>